<mxfile host="app.diagrams.net" modified="2021-06-27T02:59:47.241Z" agent="5.0 (Windows NT 10.0; Win64; x64) AppleWebKit/537.36 (KHTML, like Gecko) Chrome/92.0.4515.59 Safari/537.36 Edg/92.0.902.22" etag="cK21P7eegWcSzi3wju5H" version="14.8.1" type="github">
  <diagram id="agQYTFDrnlqxaYDf4e4_" name="第 1 页">
    <mxGraphModel dx="1422" dy="762" grid="1" gridSize="10" guides="1" tooltips="1" connect="1" arrows="1" fold="1" page="1" pageScale="1" pageWidth="827" pageHeight="1169" math="0" shadow="0">
      <root>
        <mxCell id="0" />
        <mxCell id="1" parent="0" />
        <mxCell id="XiWNiWrkr5PxnwOP3_KT-2" value="" style="rounded=0;whiteSpace=wrap;html=1;sketch=1;fillColor=#E1D5E7;strokeWidth=2;" vertex="1" parent="1">
          <mxGeometry x="130" y="340" width="340" height="320" as="geometry" />
        </mxCell>
        <mxCell id="XiWNiWrkr5PxnwOP3_KT-1" value="" style="rounded=0;whiteSpace=wrap;html=1;shadow=0;glass=0;strokeWidth=2;sketch=1;fillColor=#FF99CC;" vertex="1" parent="1">
          <mxGeometry x="190" y="550" width="170" height="90" as="geometry" />
        </mxCell>
        <mxCell id="XiWNiWrkr5PxnwOP3_KT-3" value="prop：count" style="text;html=1;strokeColor=none;fillColor=none;align=center;verticalAlign=middle;whiteSpace=wrap;rounded=0;fontSize=19;fontFamily=Comic Sans MS;" vertex="1" parent="1">
          <mxGeometry x="190" y="565" width="110" height="20" as="geometry" />
        </mxCell>
        <mxCell id="XiWNiWrkr5PxnwOP3_KT-8" style="rounded=0;orthogonalLoop=1;jettySize=auto;html=1;exitX=0.5;exitY=1;exitDx=0;exitDy=0;entryX=0.75;entryY=0;entryDx=0;entryDy=0;fontFamily=Comic Sans MS;fontSize=16;strokeWidth=2;sketch=1;" edge="1" parent="1" source="XiWNiWrkr5PxnwOP3_KT-4" target="XiWNiWrkr5PxnwOP3_KT-3">
          <mxGeometry relative="1" as="geometry" />
        </mxCell>
        <mxCell id="XiWNiWrkr5PxnwOP3_KT-9" value="Text" style="edgeLabel;html=1;align=center;verticalAlign=middle;resizable=0;points=[];fontSize=16;fontFamily=Comic Sans MS;" vertex="1" connectable="0" parent="XiWNiWrkr5PxnwOP3_KT-8">
          <mxGeometry x="-0.6118" y="-4" relative="1" as="geometry">
            <mxPoint y="39" as="offset" />
          </mxGeometry>
        </mxCell>
        <mxCell id="XiWNiWrkr5PxnwOP3_KT-10" value="v-bind:count=&quot;c&quot;" style="edgeLabel;html=1;align=center;verticalAlign=middle;resizable=0;points=[];fontSize=16;fontFamily=Comic Sans MS;labelBorderColor=#7EA6E0;labelBackgroundColor=#ffffff;fontColor=#7EA6E0;" vertex="1" connectable="0" parent="XiWNiWrkr5PxnwOP3_KT-8">
          <mxGeometry x="-0.125" relative="1" as="geometry">
            <mxPoint as="offset" />
          </mxGeometry>
        </mxCell>
        <mxCell id="XiWNiWrkr5PxnwOP3_KT-4" value="data：{c = 0}" style="text;html=1;strokeColor=none;fillColor=none;align=center;verticalAlign=middle;whiteSpace=wrap;rounded=0;fontSize=20;fontFamily=Comic Sans MS;" vertex="1" parent="1">
          <mxGeometry x="190" y="370" width="170" height="30" as="geometry" />
        </mxCell>
        <mxCell id="XiWNiWrkr5PxnwOP3_KT-6" value="父组件" style="text;html=1;strokeColor=none;fillColor=none;align=center;verticalAlign=middle;whiteSpace=wrap;rounded=0;shadow=0;glass=0;sketch=1;fontFamily=Comic Sans MS;fontSize=16;" vertex="1" parent="1">
          <mxGeometry x="120" y="320" width="80" height="20" as="geometry" />
        </mxCell>
        <mxCell id="XiWNiWrkr5PxnwOP3_KT-7" value="子组件" style="text;html=1;strokeColor=none;fillColor=none;align=center;verticalAlign=middle;whiteSpace=wrap;rounded=0;shadow=0;glass=0;sketch=1;fontFamily=Comic Sans MS;fontSize=16;" vertex="1" parent="1">
          <mxGeometry x="190" y="530" width="60" height="20" as="geometry" />
        </mxCell>
      </root>
    </mxGraphModel>
  </diagram>
</mxfile>
